<svg xmlns="http://www.w3.org/2000/svg" viewBox="0 0 16 16"><defs><style>.prefix__b{fill:#163d0d}.prefix__c{fill:#fff}</style></defs><path d="M0 8c0-3.771 0-5.657 1.172-6.828S4.229 0 8 0s5.657 0 6.828 1.172S16 4.229 16 8s0 5.657-1.172 6.828S11.771 16 8 16s-5.657 0-6.828-1.172S0 11.771 0 8z" fill="#8ef677"/><path class="prefix__b" d="M14.466 4.454c.448 1.478.277 2.857-.6 3.078-.874.22-1.738-.695-2.187-2.173s-.171-2.77.535-3.03c.863-.318 1.803.647 2.252 2.125zM4.326 4.932C3.536 6.26 2.401 6.92 1.777 6.54c-.695-.421-.636-1.666.155-2.993s1.984-2.03 2.61-1.613c.717.477.575 1.672-.216 2.998z"/><circle class="prefix__c" cx="3.743" cy="2.792" r=".612"/><circle class="prefix__c" cx="12.509" cy="3.356" r=".612"/><path class="prefix__b" d="M12.15 10.849c0 2.664-2.72 3.907-4.834 3.907-2.66 0-5.074-2.458-4.752-4.705a3.2 3.2 0 011.897-2.746 5.102 5.102 0 003.455 1.48 6.67 6.67 0 003.33-.486 3.72 3.72 0 01.904 2.55z"/><path d="M7.671 14.193c-1.6.032-2.928-.523-2.9-1.455.026-.928 1.181-1.528 2.782-1.56s2.81.604 2.872 1.377c.074.944-1.153 1.606-2.754 1.638z" fill="#5cd741"/></svg>